<svg id="visual" viewBox="0 0 900 150" width="900" height="150" xmlns="http://www.w3.org/2000/svg" xmlns:xlink="http://www.w3.org/1999/xlink" version="1.1"><path d="M0 58L39 58L39 66L78 66L78 37L117 37L117 50L157 50L157 22L196 22L196 34L235 34L235 40L274 40L274 8L313 8L313 13L352 13L352 12L391 12L391 61L430 61L430 34L470 34L470 32L509 32L509 8L548 8L548 19L587 19L587 64L626 64L626 24L665 24L665 22L704 22L704 50L743 50L743 38L783 38L783 69L822 69L822 32L861 32L861 11L900 11L900 25L900 151L900 151L861 151L861 151L822 151L822 151L783 151L783 151L743 151L743 151L704 151L704 151L665 151L665 151L626 151L626 151L587 151L587 151L548 151L548 151L509 151L509 151L470 151L470 151L430 151L430 151L391 151L391 151L352 151L352 151L313 151L313 151L274 151L274 151L235 151L235 151L196 151L196 151L157 151L157 151L117 151L117 151L78 151L78 151L39 151L39 151L0 151Z" fill="#e4e3d3"></path><path d="M0 59L39 59L39 73L78 73L78 89L117 89L117 80L157 80L157 88L196 88L196 47L235 47L235 86L274 86L274 76L313 76L313 71L352 71L352 66L391 66L391 32L430 32L430 67L470 67L470 70L509 70L509 56L548 56L548 32L587 32L587 89L626 89L626 64L665 64L665 32L704 32L704 81L743 81L743 55L783 55L783 35L822 35L822 65L861 65L861 80L900 80L900 75L900 151L900 151L861 151L861 151L822 151L822 151L783 151L783 151L743 151L743 151L704 151L704 151L665 151L665 151L626 151L626 151L587 151L587 151L548 151L548 151L509 151L509 151L470 151L470 151L430 151L430 151L391 151L391 151L352 151L352 151L313 151L313 151L274 151L274 151L235 151L235 151L196 151L196 151L157 151L157 151L117 151L117 151L78 151L78 151L39 151L39 151L0 151Z" fill="#b4bcad"></path><path d="M0 89L39 89L39 73L78 73L78 78L117 78L117 61L157 61L157 76L196 76L196 78L235 78L235 80L274 80L274 74L313 74L313 102L352 102L352 75L391 75L391 106L430 106L430 92L470 92L470 98L509 98L509 73L548 73L548 83L587 83L587 96L626 96L626 106L665 106L665 57L704 57L704 74L743 74L743 95L783 95L783 62L822 62L822 93L861 93L861 62L900 62L900 56L900 151L900 151L861 151L861 151L822 151L822 151L783 151L783 151L743 151L743 151L704 151L704 151L665 151L665 151L626 151L626 151L587 151L587 151L548 151L548 151L509 151L509 151L470 151L470 151L430 151L430 151L391 151L391 151L352 151L352 151L313 151L313 151L274 151L274 151L235 151L235 151L196 151L196 151L157 151L157 151L117 151L117 151L78 151L78 151L39 151L39 151L0 151Z" fill="#85978b"></path><path d="M0 122L39 122L39 84L78 84L78 101L117 101L117 97L157 97L157 109L196 109L196 118L235 118L235 90L274 90L274 92L313 92L313 100L352 100L352 84L391 84L391 82L430 82L430 111L470 111L470 100L509 100L509 94L548 94L548 95L587 95L587 97L626 97L626 91L665 91L665 114L704 114L704 84L743 84L743 81L783 81L783 84L822 84L822 104L861 104L861 85L900 85L900 87L900 151L900 151L861 151L861 151L822 151L822 151L783 151L783 151L743 151L743 151L704 151L704 151L665 151L665 151L626 151L626 151L587 151L587 151L548 151L548 151L509 151L509 151L470 151L470 151L430 151L430 151L391 151L391 151L352 151L352 151L313 151L313 151L274 151L274 151L235 151L235 151L196 151L196 151L157 151L157 151L117 151L117 151L78 151L78 151L39 151L39 151L0 151Z" fill="#59736d"></path><path d="M0 115L39 115L39 136L78 136L78 112L117 112L117 125L157 125L157 143L196 143L196 130L235 130L235 122L274 122L274 126L313 126L313 137L352 137L352 105L391 105L391 116L430 116L430 138L470 138L470 133L509 133L509 132L548 132L548 135L587 135L587 127L626 127L626 132L665 132L665 124L704 124L704 133L743 133L743 104L783 104L783 106L822 106L822 137L861 137L861 111L900 111L900 116L900 151L900 151L861 151L861 151L822 151L822 151L783 151L783 151L743 151L743 151L704 151L704 151L665 151L665 151L626 151L626 151L587 151L587 151L548 151L548 151L509 151L509 151L470 151L470 151L430 151L430 151L391 151L391 151L352 151L352 151L313 151L313 151L274 151L274 151L235 151L235 151L196 151L196 151L157 151L157 151L117 151L117 151L78 151L78 151L39 151L39 151L0 151Z" fill="#315052"></path></svg>